<svg xmlns="http://www.w3.org/2000/svg" style="display:none">
<symbol id="search" viewBox="0 0 24 24" fill="none" stroke="currentColor" stroke-width="2" stroke-linecap="square"><circle cx="11" cy="11" r="7"/><path d="M20 20l-4-4"/></symbol>
<symbol id="menu" viewBox="0 0 24 24" fill="none" stroke="currentColor" stroke-width="2" stroke-linecap="square"><path d="M4 7h16M4 12h16M4 17h16"/></symbol>
<symbol id="close" viewBox="0 0 24 24" fill="none" stroke="currentColor" stroke-width="2.2" stroke-linecap="square"><path d="M6 6l12 12M18 6L6 18"/></symbol>
<symbol id="save" viewBox="0 0 24 24" fill="none" stroke="currentColor" stroke-width="2" stroke-linecap="square"><path d="M6 4h12v16l-6-4-6 4z"/></symbol>
<symbol id="saved" viewBox="0 0 24 24" fill="currentColor" stroke="currentColor" stroke-width="2" stroke-linecap="square"><path d="M6 4h12v16l-6-4-6 4z"/></symbol>
<symbol id="share" viewBox="0 0 24 24" fill="none" stroke="currentColor" stroke-width="2" stroke-linecap="square"><circle cx="18" cy="5" r="3"/><circle cx="6" cy="12" r="3"/><circle cx="18" cy="19" r="3"/><path d="M8.6 13.5l6.8 4M15.4 6.5l-6.8 4"/></symbol>
<symbol id="clock" viewBox="0 0 24 24" fill="none" stroke="currentColor" stroke-width="2" stroke-linecap="square"><circle cx="12" cy="12" r="9"/><path d="M12 7v5l3 2"/></symbol>
<symbol id="download" viewBox="0 0 24 24" fill="none" stroke="currentColor" stroke-width="2" stroke-linecap="square"><path d="M12 4v11M7 10l5 5 5-5M5 20h14"/></symbol>
<symbol id="check" viewBox="0 0 24 24" fill="none" stroke="currentColor" stroke-width="2" stroke-linecap="square"><path d="M5 12l5 5 9-10"/></symbol>
<symbol id="check3" viewBox="0 0 24 24" fill="none" stroke="currentColor" stroke-width="3" stroke-linecap="square"><path d="M5 12l5 5 9-10"/></symbol>
<symbol id="offline" viewBox="0 0 24 24" fill="none" stroke="currentColor" stroke-width="2" stroke-linecap="square"><path d="M2 8.5a15 15 0 0 1 20 0M5 12a10 10 0 0 1 14 0M8.5 15.5a5 5 0 0 1 7 0M12 19h.01M3 3l18 18"/></symbol>
<symbol id="external" viewBox="0 0 24 24" fill="none" stroke="currentColor" stroke-width="2" stroke-linecap="square"><path d="M14 4h6v6M20 4l-9 9M18 14v6H4V6h6"/></symbol>
<symbol id="whatsapp" viewBox="0 0 24 24" fill="none" stroke="currentColor" stroke-width="2" stroke-linecap="square"><path d="M4 5h16v11H9l-5 4z"/></symbol>
<symbol id="telegram" viewBox="0 0 24 24" fill="none" stroke="currentColor" stroke-width="2" stroke-linecap="square"><path d="M21 3L3 11l7 2 2 7z"/></symbol>
<symbol id="learn" viewBox="0 0 24 24" fill="none" stroke="currentColor" stroke-width="2" stroke-linecap="square"><path d="M2 9l10-5 10 5-10 5zM6 11v5c3 2 9 2 12 0v-5"/></symbol>
<symbol id="calendar" viewBox="0 0 24 24" fill="none" stroke="currentColor" stroke-width="2" stroke-linecap="square"><path d="M4 6h16v14H4zM4 10h16M8 3v4M16 3v4"/></symbol>
<symbol id="alert" viewBox="0 0 24 24" fill="none" stroke="currentColor" stroke-width="2" stroke-linecap="square"><path d="M12 3l10 18H2zM12 10v4M12 17v1"/></symbol>
<symbol id="chev" viewBox="0 0 24 24" fill="none" stroke="currentColor" stroke-width="2.2" stroke-linecap="square"><path d="M9 5l7 7-7 7"/></symbol>
<symbol id="chev-l" viewBox="0 0 24 24" fill="none" stroke="currentColor" stroke-width="2" stroke-linecap="square"><path d="M15 5l-7 7 7 7"/></symbol>
<symbol id="chev-d" viewBox="0 0 24 24" fill="none" stroke="currentColor" stroke-width="2.2" stroke-linecap="square"><path d="M5 9l7 7 7-7"/></symbol>
<symbol id="link" viewBox="0 0 24 24" fill="none" stroke="currentColor" stroke-width="2" stroke-linecap="square"><path d="M10 14l4-4M8 11l-2 2a3 3 0 0 0 4 4l2-2M16 13l2-2a3 3 0 0 0-4-4l-2 2"/></symbol>
<symbol id="trash" viewBox="0 0 24 24" fill="none" stroke="currentColor" stroke-width="2" stroke-linecap="square"><path d="M4 7h16M9 7V4h6v3M6 7l1 13h10l1-13M10 11v6M14 11v6"/></symbol>
<symbol id="plus" viewBox="0 0 24 24" fill="none" stroke="currentColor" stroke-width="2.2" stroke-linecap="square"><path d="M12 5v14M5 12h14"/></symbol>
<symbol id="filter" viewBox="0 0 24 24" fill="none" stroke="currentColor" stroke-width="2" stroke-linecap="square"><path d="M4 6h16M7 12h10M10 18h4"/></symbol>
<symbol id="bell" viewBox="0 0 24 24" fill="none" stroke="currentColor" stroke-width="2" stroke-linecap="square"><path d="M6 17V11a6 6 0 0 1 12 0v6l2 2H4zM10 21h4"/></symbol>
<symbol id="pin" viewBox="0 0 24 24" fill="none" stroke="currentColor" stroke-width="2" stroke-linecap="square"><path d="M12 21s-7-6.5-7-12a7 7 0 0 1 14 0c0 5.5-7 12-7 12z"/><circle cx="12" cy="9" r="2.5"/></symbol>
<symbol id="users" viewBox="0 0 24 24" fill="none" stroke="currentColor" stroke-width="2" stroke-linecap="square"><circle cx="9" cy="8" r="3.5"/><path d="M2 20c0-4 3-6 7-6s7 2 7 6M16 4.5a3.5 3.5 0 0 1 0 7M18 14c2.5.5 4 2.5 4 6"/></symbol>
<symbol id="edit" viewBox="0 0 24 24" fill="none" stroke="currentColor" stroke-width="2" stroke-linecap="square"><path d="M4 20h4L19 9l-4-4L4 16zM13 7l4 4"/></symbol>
</svg>
